<svg width="23" height="23" viewBox="0 0 23 23" xmlns="http://www.w3.org/2000/svg"><title>Group 16</title><g fill="none" fill-rule="evenodd"><ellipse fill="#ECECEC" cx="11.6" cy="11.5" rx="11.2" ry="11"/><path d="M17.838 7.754v.877h-1.82v1.755h-.911V8.63h-1.822v-.877h1.822V6h.91v1.754h1.821zM10.447 6h3.109l-.96.541h-.961c.704.425 1.06 1.254 1.06 2.022 0 1.816-1.594 1.953-1.594 2.857 0 .884 2.134 1.234 2.134 3.152 0 .788-.39 1.426-.996 1.933-.818.678-1.935.898-2.988.898-1.33 0-3.251-.549-3.251-2.138 0-.323.114-.638.263-.926.633-1.233 2.611-1.548 3.885-1.582-.235-.295-.456-.638-.456-1.021 0-.227.086-.377.157-.59-.17.02-.334.034-.498.034-1.38 0-2.576-.98-2.576-2.357 0-1.302 1.046-2.412 2.341-2.686A6.64 6.64 0 0 1 10.446 6zm.932 3.255c0-1.042-.584-2.762-1.9-2.762-.932 0-1.387.795-1.387 1.604 0 1.041.711 2.672 1.977 2.672.975 0 1.31-.678 1.31-1.514zm.853 5.907c0-.96-.932-1.494-1.657-1.98-.121-.014-.235-.014-.356-.014-1.167 0-2.903.356-2.903 1.781 0 1.316 1.537 1.823 2.675 1.823 1.06 0 2.241-.411 2.241-1.61z" fill="#242424"/></g></svg>