<svg width="23" height="23" viewBox="0 0 23 23" xmlns="http://www.w3.org/2000/svg"><title>Group 19</title><g fill="none" fill-rule="evenodd"><ellipse fill="#ECECEC" cx="11.4" cy="11.5" rx="11.2" ry="11"/><path d="M17.929 8.71c-.308 1.721-1.13 3.346-2.468 4.873-1.337 1.527-2.515 2.624-3.535 3.29-.404.26-.793.339-1.169.237a2.164 2.164 0 0 1-.952-.528 2.995 2.995 0 0 1-.62-.847c-.154-.296-.53-1.402-1.126-3.318-.596-1.916-.952-2.948-1.068-3.096-.154-.111-.336-.135-.548-.07a2.772 2.772 0 0 0-.635.292l-.289.194L5 9.043c.173-.185.394-.426.664-.722s.75-.708 1.443-1.236c.692-.527 1.289-.837 1.789-.93.289-.056.544-.023.765.097.221.12.394.282.52.486.124.204.235.481.331.833.096.352.168.676.217.972.048.296.105.643.173 1.041.067.398.13.708.187.93.135.5.236.87.303 1.111.068.241.15.491.246.75.096.26.182.44.26.542.076.101.163.152.26.152.384 0 .99-.768 1.817-2.304.404-.704.433-1.278.087-1.722-.347-.444-.885-.454-1.616-.028.211-1.166.885-2.036 2.02-2.61 1-.5 1.876-.537 2.626-.111.77.426 1.049 1.23.837 2.416z" fill="#242424"/></g></svg>