<svg width="24" height="22" viewBox="0 0 24 22" xmlns="http://www.w3.org/2000/svg"><title>Group 17</title><g transform="translate(.7 -.5)" fill="none" fill-rule="evenodd"><ellipse fill="#ECECEC" cx="11.2" cy="11.5" rx="11.2" ry="11"/><path d="M17.746 7.412c0-.117-.1-.22-.23-.22-.072 0-.568.2-.697.233.172-.192.568-.774.568-1.02 0-.117-.1-.22-.23-.22a.247.247 0 0 0-.115.034c-.49.254-.957.453-1.504.562A3.028 3.028 0 0 0 13.51 6c-1.596 0-2.905 1.24-2.905 2.768 0 .11.007.227.029.336a7.547 7.547 0 0 1-4.265-1.768c-.288-.246-.533-.514-.791-.788a.23.23 0 0 0-.195-.082c-.079 0-.143.055-.18.11-.258.363-.395.952-.395 1.39 0 .638.23 1.262.662 1.755-.137-.041-.346-.171-.468-.171-.15 0-.28.102-.28.246 0 .96.554 1.85 1.402 2.35-.065-.006-.122-.027-.187-.027-.122 0-.223.103-.223.213 0 .027.007.048.015.075.316.925 1.107 1.624 2.1 1.843a5.308 5.308 0 0 1-2.697.727c-.216 0-.432-.035-.64-.035-.13 0-.23.103-.23.22 0 .075.043.137.107.185.187.13.417.24.626.342a8.126 8.126 0 0 0 3.596.836c3.136 0 5.818-1.603 7.113-4.33.467-.98.74-2.056.72-3.132v-.226c.488-.35.963-.802 1.286-1.302a.228.228 0 0 0 .036-.123z" fill="#242424"/></g></svg>