<svg width="23" height="22" viewBox="0 0 23 22" xmlns="http://www.w3.org/2000/svg"><title>Group 8</title><g transform="translate(0 -.842)" fill="none" fill-rule="evenodd"><ellipse fill="#ECECEC" cx="11.2" cy="11.842" rx="11.2" ry="11"/><path d="M12.233 8.167c.31 0 .732.054 1.073.123a.33.33 0 0 0 .239-.046.278.278 0 0 0 .127-.2l.215-1.493a.3.3 0 0 0-.223-.321A6.762 6.762 0 0 0 11.875 6c-1.9 0-2.823.873-2.823 2.68v.79h-.97a.297.297 0 0 0-.302.29v1.532c0 .169.135.299.302.299h.97v5.882c0 .16.136.29.303.29h1.987c.16 0 .295-.13.295-.29V11.59h1.606a.305.305 0 0 0 .302-.276l.111-1.532a.287.287 0 0 0-.08-.222.289.289 0 0 0-.214-.092h-1.725v-.674c0-.505.055-.628.596-.628z" fill="#242424"/></g></svg>