<svg width="23" height="23" viewBox="0 0 23 23" xmlns="http://www.w3.org/2000/svg"><title>Group 15</title><g fill="none" fill-rule="evenodd"><ellipse fill="#ECECEC" cx="11.2" cy="11.842" rx="11.2" ry="11"/><g fill="#242424"><path d="M7.121 7.334c-1.017.354-1.939 1.012-2.508 1.908-.516.807-.747 1.49-.498 2.415.25 1.026 1.002 1.903 1.899 2.478-.17.473-.225.88-.286 1.39.683-.254.942-.44 1.507-.73.68.211 1.6.31 2.314.288-.761-3.486 2.3-4.598 4.526-4.543-.311-1.298-1.086-2.265-2.171-2.846-1.44-.782-3.233-.9-4.783-.36zm.942 2.501c-.094.439-.703.65-1.058.356-.412-.28-.297-.977.187-1.117.474-.176 1.014.289.871.761zm3.432-.13c.004.505-.692.82-1.084.477-.406-.28-.29-.965.186-1.107.427-.162.931.186.898.63z"/><path d="M16.054 11.31c-1.33-.614-3.074-.657-4.495 0-.94.436-1.57 1.156-1.79 2.155-.182.736.005 1.552.41 2.194.601.964 1.39 1.491 2.52 1.689.82.16 1.844.077 2.6-.144.475.18 1 .566 1.461.78a25.59 25.59 0 0 0-.382-1.15c.518-.358.99-.8 1.273-1.358a2.852 2.852 0 0 0 .075-2.536c-.345-.755-.907-1.275-1.672-1.63zm-3.075 1.88c-.126.385-.707.502-.986.208-.31-.27-.189-.838.216-.959.45-.183.967.317.77.752zm2.835.054c-.15.347-.673.427-.931.159-.125-.113-.156-.283-.206-.433.067-.27.249-.553.558-.565.427-.058.803.458.58.839z"/></g></g></svg>