<svg width="24" height="22" viewBox="0 0 24 22" xmlns="http://www.w3.org/2000/svg"><title>Group 18</title><g transform="translate(.55 -.071)" fill="none" fill-rule="evenodd"><ellipse fill="#ECECEC" cx="11.6" cy="11.071" rx="11.2" ry="11"/><path d="M10.705 13.016c-.254 1.182-.538 2.14-.852 2.876a4 4 0 0 1-1.41 1.759 26.832 26.832 0 0 1-.103-1.636c-.01-.418.044-.918.161-1.5.118-.58.226-1.053.324-1.417.098-.363.225-.813.382-1.35.156-.535.274-.985.352-1.349-.235-.472-.328-1-.279-1.58a2.12 2.12 0 0 1 .705-1.446c.422-.381.907-.472 1.455-.272.392.145.607.413.647.804.039.39-.025.822-.191 1.295-.167.472-.324.94-.47 1.404-.148.463-.167.872-.06 1.227.108.354.417.577.926.667.666.128 1.26-.045 1.778-.517a3.758 3.758 0 0 0 1.088-1.786 5.46 5.46 0 0 0 .161-2.222c-.098-.763-.362-1.345-.793-1.745-.608-.581-1.347-.9-2.219-.954-.872-.054-1.67.096-2.395.45A4.3 4.3 0 0 0 8.149 7.32a3.212 3.212 0 0 0-.47 2.317c.039.2.146.436.323.709.176.272.279.486.308.64.03.155-.053.46-.25.914-1.43-.31-2.115-1.354-2.057-3.135.04-1.254.554-2.318 1.543-3.19a6.094 6.094 0 0 1 3.424-1.527c1.606-.163 3.027.096 4.261.777 1.234.682 1.94 1.677 2.116 2.986.255 1.599-.069 3.04-.97 4.32-.901 1.282-2.135 1.868-3.703 1.759a2.736 2.736 0 0 1-.617-.123 2.623 2.623 0 0 1-.44-.177 7.814 7.814 0 0 1-.456-.286 7.814 7.814 0 0 0-.456-.287z" fill="#242424"/></g></svg>