<svg width="108" height="58" xmlns="http://www.w3.org/2000/svg"><g fill="none" fill-rule="evenodd"><g fill-rule="nonzero"><path d="M33.535 27.5L.525 54.403A1.826 1.826 0 0 1 0 53.12V1.88C0 1.383.2.928.525.598L33.535 27.5zM77 1.88v51.24c0 .498-.2.953-.525 1.283L43.465 27.5 76.475.597c.324.33.525.785.525 1.284z" fill="#F6A623"/><path d="M75.175.047H1.825c-.508 0-.967.21-1.3.55L38.5 40.333 76.475.597a1.813 1.813 0 0 0-1.3-.55z" fill="#FFDB77"/><path d="M50.763 27.5l25.712 26.903c-.333.34-.792.55-1.3.55H1.825c-.508 0-.967-.21-1.3-.55L26.238 27.5 38.5 40.333 50.763 27.5z" fill="#D08710"/></g><path d="M68.213 41.9L54.778 28.467 47 36.244 64.324 53.57l3.89 3.888 39.244-39.245-7.78-7.778L68.214 41.9z" fill="#2CC185"/></g></svg>